<?xml version="1.0" standalone="no"?>
<!DOCTYPE svg PUBLIC "-//W3C//DTD SVG 20010904//EN"
 "http://www.w3.org/TR/2001/REC-SVG-20010904/DTD/svg10.dtd">
<svg version="1.0" xmlns="http://www.w3.org/2000/svg"
 width="256.000000pt" height="256.000000pt" viewBox="0 0 256.000000 256.000000"
 preserveAspectRatio="xMidYMid meet">

<g transform="translate(0.000000,256.000000) scale(0.100000,-0.100000)"
fill="#000000" stroke="none">
<path d="M1141 2529 c-460 -54 -865 -380 -1025 -827 -72 -201 -90 -464 -47
-669 105 -503 475 -878 971 -985 127 -28 356 -30 483 -5 707 141 1153 847 976
1547 -155 611 -733 1011 -1358 939z m439 -232 c180 -54 324 -140 451 -266 135
-136 224 -294 276 -490 22 -83 26 -117 26 -256 0 -140 -3 -172 -25 -256 -102
-379 -362 -646 -740 -760 -104 -30 -360 -38 -479 -14 -330 66 -618 299 -750
605 -46 107 -65 177 -84 317 -14 96 -14 119 0 218 27 196 76 334 169 473 152
229 382 385 657 447 46 11 112 14 239 11 154 -3 185 -6 260 -29z"/>
<path d="M1297 2303 c-4 -3 -7 -249 -7 -545 0 -459 -2 -538 -14 -538 -22 0
-50 -41 -71 -104 l-19 -56 -217 0 -216 0 -41 44 c-55 59 -60 84 -28 130 41 61
43 114 11 241 -33 129 -44 280 -25 364 6 31 25 80 42 110 16 29 27 56 23 59
-9 9 -131 -115 -180 -184 -58 -80 -120 -210 -146 -309 -32 -118 -33 -336 -1
-455 28 -104 88 -232 147 -316 63 -88 191 -203 287 -258 84 -47 257 -110 287
-104 10 3 -19 26 -71 61 -49 31 -88 58 -88 60 0 2 -141 353 -167 415 -3 7 3
12 16 12 17 0 31 -22 76 -116 35 -74 59 -114 67 -112 16 6 29 30 74 141 l36
87 109 0 109 0 0 -85 0 -85 -27 0 -26 0 6 -97 c4 -54 7 -124 7 -155 0 -45 5
-63 20 -78 16 -16 20 -33 20 -89 0 -39 4 -72 9 -75 4 -3 46 -1 92 4 234 27
438 121 602 279 277 266 379 654 271 1029 -91 316 -346 576 -660 676 -115 36
-292 65 -307 49z m756 -554 c202 -344 159 -782 -106 -1065 -85 -91 -168 -154
-265 -201 -72 -34 -192 -76 -199 -69 -2 2 27 23 65 46 l69 43 108 281 c101
262 112 284 157 331 26 28 48 57 48 64 0 8 -14 36 -31 63 -27 42 -35 48 -66
48 -29 0 -36 -5 -48 -34 -31 -73 -111 -106 -221 -91 -40 6 -56 15 -90 51 -22
23 -52 46 -66 49 -15 4 -29 14 -33 23 -20 53 256 182 359 168 155 -21 143 -27
172 74 13 47 18 96 18 180 0 100 -5 138 -30 218 -10 33 121 -116 159 -179z"/>
<path d="M802 1455 c-19 -23 -22 -41 -22 -110 0 -69 4 -87 23 -115 37 -56 68
-72 146 -78 86 -6 147 14 180 59 13 17 38 37 57 45 47 20 52 39 19 74 -53 55
-228 132 -335 146 -43 6 -49 4 -68 -21z"/>
<path d="M1080 779 c0 -8 12 -82 27 -166 24 -137 29 -152 51 -162 33 -16 42
-6 38 42 -3 23 -8 93 -11 154 -4 62 -13 117 -19 122 -6 5 -28 12 -48 16 -29 6
-38 4 -38 -6z"/>
</g>
</svg>
